<svg xmlns="http://www.w3.org/2000/svg" viewBox="0 0 86 36.4" width="85.8" height="36.3"><style type="text/css">.st0{fill:#D6DFE6;} .st1{fill:#B3C1CB;} .st2{fill:#8596A3;} .st3{fill:#FFFFFF;}</style><rect class="st0" width="85.8" height="36.3"/><path class="st1" d="M83.9 21.6l-2.5-5.8 -3.7 0.8c0.5 1.3 1.5 3.6 2.7 6.3L83.9 21.6z"/><polygon class="st1" points="74.5 18.5 73.2 19.3 73.3 19.5 "/><path class="st1" d="M75.5 24.7L80 23c-1.2-2.7-2.2-5-2.7-6.2l-3.8 3.1L75.5 24.7z"/><path class="st1" d="M85.5 17.4C85.5 17.4 85.5 17.4 85.5 17.4l-0.4-0.2c-0.8-0.7-1.9-1-3-0.7l2.3 5.2 1.5-0.6v-3.6H85.5z"/><path class="st1" d="M70.3 32.9c-1.3-1.2-2.4-2.6-3.3-4.2 -0.1-0.1-0.2-0.4-0.3-0.7l-0.2 0.3c2.2 3 4.3 5.8 6.3 8h1.2C73 35.6 71.6 34.3 70.3 32.9z"/><path class="st1" d="M70.7 32.8c1.5 1.6 3.1 3 3.8 3.5h0.2l0.7-0.2L73 31.9 70.7 32.8z"/><polygon class="st1" points="52.8 35.4 53 36.4 57.7 36.4 57.1 34.4 "/><path class="st1" d="M52.4 35.5l0.1 0.9h0.1C52.5 36 52.5 35.6 52.4 35.5L52.4 35.5z"/><polygon class="st1" points="77.2 29.9 75.2 25.2 70.7 26.9 73.2 31.4 "/><path class="st1" d="M79.6 34.6l4.7-1.8c-0.6-1.5-1.3-3-2-4.5l-4.6 1.8L79.6 34.6z"/><path class="st1" d="M70.4 32.5l2.4-0.9 -2.5-4.5 -3.2 1.2c0 0.1 0.1 0.2 0.1 0.3C68.1 30 69.2 31.3 70.4 32.5z"/><polygon class="st1" points="77.3 30.3 73.4 31.8 75.8 36 76.9 35.7 79.2 34.8 "/><polygon class="st1" points="77.2 36.3 77.2 36.3 77.1 36.3 79.9 36.3 79.5 35.4 "/><polygon class="st1" points="79.9 35.3 80.3 36.3 85.8 36.3 84.6 33.5 "/><path class="st1" d="M53 6.3l0.4 0.2C53.3 6.4 53.2 6.4 53 6.3L53 6.3z"/><path class="st1" d="M49.2 5.3c1 0.2 3.1 0.5 3.9 0.7 0.3 0 0.6 0.2 0.8 0.5 0.1 0.3 0.1 0.6 0 0.9 0 0 0 0.1 0 0.1 0 0.1-0.1 0.2-0.2 0.2 -0.1 0-0.1-0.1-0.1-0.2 -0.5 0.7-1 1.3-1.5 1.9l-1.6 2.3c0 0-0.1 0.1-0.1 0.1 -0.4 1.6-0.4 3.3 0.1 4.9 0 0 0 0 0.1 0 0 0 0.1 0.1 0.1 0.1 0.2 1.1 0.7 2 1.5 2.7 0.1 0.1 0.2 0.2 0.3 0.4 0.3 0.2 0.6 0.4 1 0.5 0.1-0.5 0.2-1.1 0.2-1.6 -0.2-2.6 0.4-5.2 1.7-7.4 -0.3-2.8 0.2-5.6 1.5-8.1 0.6-1.1 1.4-2.2 2.3-3.2h-5.5L49.2 5.3z"/><path class="st1" d="M4.3 14.5l1.3 0.1 0.2-3.9 -1.1-0.1C4.6 12 4.4 13.3 4.3 14.5z"/><path class="st1" d="M43.1 33l0-0.6 0-0.5 0-0.7 0.1-0.3c-0.1-0.4-0.1-0.8 0-1.2 0.1-0.3 0.1-0.7 0.2-1 -2.3-0.4-4.5-1.2-6.5-2.4 -1.3-0.7-2.5-1.6-3.5-2.6l-0.3 0.3c-0.2-0.1-0.3-0.2-0.3-0.2 -0.1 0 0.2-0.4 0.2-0.4 -0.8-0.8-1.5-1.7-2.2-2.7 -0.6-1.2-1.7-2.1-3-2.4 0.3-0.4 0.5-0.6 0.6-0.6l0.2-2.7 0.2-0.2c0 0-0.1 0.1-0.2 0.1 0 0-0.1 0-0.1 0 -0.1-0.1-0.1-0.2 0-0.3l1.9-2.3L30 11.8c-0.5-0.4-0.5-0.3-1.3 0.2 -0.7 0.5-0.5 0.2-0.5-0.5 0-0.7 0.2-1.3-0.4-1.2 -0.6 0.1-0.6 0.5-0.5 1.2 0.1 0.7-0.5 0.9-1.3 1.1s-0.5 0-0.5-0.8c0-0.5 0-1-0.1-1.5 -0.5-0.3-1.1-0.5-1.7-0.5 -0.5 0.1 0.7 0.9 0.6 1.3l-2.1-0.8v1.8h-0.9l0.9-4.9 -1.3-0.4 0.1-1 -3.8-1.3c0 0 0-0.1 0-0.2 -0.4 0.3-0.9 0.4-1.3 0.3h-0.4c0 0 0 0-0.1 0 -1.5 0-5 0.1-5.6 0.5L9.6 5.4C8.6 6.2 7.4 6.7 6.2 6.7H6 5.2c-0.1 0.5-0.2 1.9-0.4 3.6l1.3 0.1c0.1 0 0.2 0.1 0.2 0.2l-0.1 1.1 2.1 0.5c0.1 0 0.1 0.1 0.1 0.1l1.6 4.9c0 0 0 0 0 0.1v1.5c0 0.1 0 0.1-0.1 0.1 0 0-0.1 0.1-0.1 0l-7.9-0.8c-0.1 0-0.2-0.1-0.2-0.2l0.2-3.2 -1.4-0.1c-0.1 1.4-0.3 2.7-0.4 3.9v0.8l9.7 1.1c0.1 0 0.1 0.1 0.2 0.1 0 0.1 0.3 0.9 0 1.3 -0.3 0.3-0.7 0.4-1.1 0.4H8.2l-8.1-0.9v1.8l4 0.5c0.1 0 0.2 0.1 0.2 0.2 0 0 0 0 0 0 0 0.1-0.1 0.2-0.2 0.2l-4-0.5 0 12.8L39 36.3h5.3l1.1-1.6 -2-1.1L43.1 33z"/><path class="st1" d="M3.9 14.4c0-0.5 0.2-2.1 0.4-3.8l-3.4-0.2c-0.1 1.2-0.3 2.5-0.4 3.6L3.9 14.4z"/><path class="st1" d="M0 6.3L0 12c0.2-1.8 0.4-3.7 0.6-5.6L0 6.3z"/><path class="st1" d="M18.4 1.3c0.7 0.3 1.3 0.6 2 0.8l-2.8-1.5c0 0.2 0 0.5 0.1 0.8C17.9 1.2 18.2 1.2 18.4 1.3z"/><path class="st1" d="M17.3 3.6c0-0.3 0-0.6 0-0.9 0-0.2 0-0.3 0-0.5 0-0.5-0.1-1.1-0.1-1.8l-1.5 0.1v3.6h0.3C16.8 4.3 17.2 4 17.3 3.6z"/><path class="st1" d="M43.5 32v0.7l0.3-0.2C43.7 32.3 43.6 32.2 43.5 32z"/><path class="st1" d="M4.6 7.7c0-0.4 0.1-0.7 0.1-0.9 0-0.1 0-0.1 0-0.1L1.3 6.4C1.2 7.6 1.1 8.9 1 10.1l3.4 0.2C4.5 9.2 4.6 8.3 4.6 7.7z"/><path class="st1" d="M9.6 21.6c0.1-0.2 0.1-0.6 0-0.8l-9.5-1.1V21l8.1 0.9C9 21.9 9.3 21.9 9.6 21.6z"/><path class="st1" d="M43.8 33.4l1.9 1 0.1-0.2c-0.6-0.3-1.1-0.7-1.5-1.2L43.8 33.4z"/><polygon class="st1" points="2.3 14.7 2.1 17.7 9.6 18.5 9.6 17.3 9 15.3 4.1 14.9 "/><polygon class="st1" points="6.2 12.1 6.1 13.4 8.3 13.4 8 12.5 "/><polygon class="st1" points="6 14.6 8.8 14.9 8.5 13.8 6.1 13.8 "/><polygon class="st1" points="17.2 0.1 15.7 0.1 15.7 0.2 17.2 0.1 "/><path class="st1" d="M22.1 1.7l-1.9-1.6h-2.6v0.1l4.3 2.3C21.9 2.2 21.9 1.9 22.1 1.7z"/><path class="st1" d="M9.2 1.8c1-0.1 1.5 0 2.2 1.8 0.1 0.2 0.2 0.5 0.2 0.8 1.2-0.1 2.5-0.2 3.8-0.1V0.6l-1.5 0.1 -1.3 0.5h-0.1c-0.1 0-0.2-0.1-0.2-0.1 0-0.1 0-0.2 0.1-0.2l1.2-0.5 0-0.4H7.2C7.4 1 8.2 1.7 9.2 1.8z"/><polygon class="st1" points="15.3 0.3 15.3 0.1 13.8 0.1 13.9 0.3 "/><path class="st1" d="M22.7 0.7l0.5-0.6h-2.4l1.4 1.2C22.4 1.1 22.5 0.9 22.7 0.7z"/><path class="st2" d="M58.9 15.3c-0.6-1.5-1-3-1.2-4.6 -0.2-1.8-0.3-5.2 1.6-7.3 0.7-0.9 1.5-1.6 2.4-2.3 0.4-0.4 0.8-0.7 1.3-1h-3.9c-0.9 0.9-1.7 2-2.3 3.2 -1.3 2.5-1.9 5.3-1.5 8.1 -1.3 2.3-1.8 4.9-1.7 7.4 0 0.5-0.1 1.1-0.2 1.6 -0.7 2-1.9 3.8-3.5 5.1 -0.2 0.2-0.4 0.4-0.6 0.5l0.2 0.8c0.3-0.2 0.6-0.5 0.9-0.7 2.5-2.2 4-4.9 4-7.3 -0.1-2.1 0.3-4.3 1.1-6.3 0.2 1.3 0.6 2.5 1.2 3.8 0.6 1.4 1.2 2.8 1.9 4.1l0.1-0.1 2-1.4C60 17.8 59.5 16.5 58.9 15.3z"/><path class="st2" d="M66.4 28.3c-2-2.8-3.8-5.7-5.4-8.8l-2 1.4L58.9 21c3 5.4 6.5 10.6 10.5 15.3h3.3C70.7 34.1 68.5 31.4 66.4 28.3z"/><path class="st2" d="M31.6 20.4c-0.7-1.2-1.7-2.1-3-2.6 -0.6-0.2-1.3-0.3-1.9-0.2 -2.6 0.4-4.8 2.2-5.7 4.6 -0.1 0.3-0.3 0.7-0.5 1.1 -1.2 3-2.9 7.1-4.8 7.2 -0.9 0.1-1.8-0.7-2.8-2.2 -2.3-3.6-3.7-5.1-4.9-5.3 -1-0.2-1.9 0.5-3 1.5 -1.7 1.3-3.2 2.7-4.6 4.3l0 0 0.5 0.6c0-0.1 0.1-0.1 0.1-0.2 1.3-1.5 2.8-2.9 4.4-4.2 1-0.9 1.7-1.5 2.4-1.4 1 0.1 2.3 1.6 4.4 4.9 1.1 1.8 2.3 2.6 3.5 2.5 2.4-0.2 4.1-4.4 5.4-7.7 0.1-0.4 0.3-0.8 0.5-1.1 0.8-2.2 2.8-3.8 5.1-4.2 1.8-0.1 3.4 0.9 4.2 2.5 0.6 1 1.4 1.9 2.2 2.8l0.3-0.3 0.2-0.2C32.9 22.2 32.2 21.3 31.6 20.4z"/><path class="st2" d="M44.3 28.2c0 0.2-0.1 0.5-0.1 0.7 1.8-0.1 3.4-0.8 4.8-1.8l-0.2-0.7C47.5 27.3 45.9 28 44.3 28.2z"/><path class="st2" d="M33.8 23.5l-0.3 0.3c1.1 1 2.2 1.9 3.5 2.6 2 1.2 4.2 2 6.5 2.4 0-0.1 0-0.3 0.1-0.4s0-0.2 0-0.3c-3.6-0.7-6.9-2.4-9.6-4.9L33.8 23.5z"/><path class="st2" d="M0.9 33.4l-0.1-0.2c0-0.1 0-0.1 0-0.2 -0.4-0.9-0.5-1.9-0.2-2.9l-0.4-0.5v3.7c0.1 0.2 0.2 0.4 0.2 0.6 0.5 1.1 0.3 1.7-0.2 2.2v0.2H1c0.6-0.8 0.6-1.9 0-2.7C1 33.6 1 33.5 0.9 33.4z"/><path class="st3" d="M85.9 35.9v-0.3l-1-2.3 1-0.4v-0.7l-1.3 0.5c-0.6-1.5-1.3-3-2-4.5l3.2-1.2v-0.4l-3.4 1.3c-0.7-1.6-1.4-3.1-2-4.6l3.5-1.3 1.9 4.3v-1l-1.6-3.6 0 0 0 0 -2.3-5.2c1.1-0.2 2.2 0 3 0.7l0.3 0.2c0 0 0.1 0 0.1 0h0.3V17h-0.3l-0.2-0.2C84.4 16 83.2 15.7 82 16c0 0 0 0-0.1 0L81 13.9l4.9-0.9v-0.4l-5 0.9V8.2L82.1 8h0.1l3.7-2.2V5.2L82 7.6l-1.1 0.2V6.2L85.8 3V2.2l-5 3.2L78 0.9l1.2-0.8h-0.7l-0.7 0.5 -0.3-0.5h-0.8l0.5 0.8 -3.7 2.4 -2.3-3.2h-0.5l2.4 3.5 -3.2 2 -1-1.7c-0.1-0.1-0.2-0.1-0.3-0.1 -0.1 0.1-0.1 0.2-0.1 0.3l1.1 1.7 -2.3 1.5L63 0.5c-0.1-0.1-0.2-0.1-0.2-0.1 -0.4 0.2-0.7 0.4-1.1 0.7 -0.9 0.7-1.7 1.5-2.4 2.3 -1.9 2.1-1.8 5.5-1.6 7.3 0.1 0.6 0.2 1 0.2 1.1 0.2 0.5 0.4 1 0.6 1.4l0 0c0.6 1.2 1.6 3.1 2.8 5.2l-0.7 0.5 -2 1.4 -0.1 0.1 -4.7 4.4 0 0L53.6 25l-0.1 0.1 0 0L50 28.5l-0.3-0.2 -0.4-1.5 -0.2-0.8L49 25.7l-0.2-1.1c1.3-0.9 2.6-1.9 3.7-3 0.2-0.5 0.1-1.2-0.3-1.6l0 0c-0.1-0.1-0.2-0.2-0.3-0.4 -0.8-0.7-1.4-1.7-1.6-2.7 0-0.1 0-0.1-0.1-0.1 0 0 0 0-0.1 0h-0.1L47.7 17l-1.1-7.2L47 9.1l0.9 0.9 0 0 1.1 0.9 -1.4 1.5c-0.1 0.1-0.1 0.2 0 0.3 0 0 0.1 0.1 0.1 0.1 0.1 0 0.1 0 0.2-0.1l1.4-1.5 0.7 0.5c0 0 0.1 0 0.1 0l0 0 0 0c0.1 0 0.1 0 0.1-0.1l1.6-2.3 0 0c0-0.1 0-0.1 0-0.2 -0.2-0.6-0.5-2.3-0.1-3.1L53 6.3h0.1c0.1 0 0.2 0.1 0.3 0.1 0.1 0 0.1 0.1 0.2 0.1 0.1 0.2 0.1 0.4 0 0.6 0 0 0 0.1 0 0.1s0 0 0 0.1c0 0.1 0.1 0.2 0.1 0.2l0 0c0.1 0 0.2-0.1 0.2-0.2 0 0 0-0.1 0-0.1 0.1-0.3 0.1-0.6 0-0.9C53.7 6.2 53.4 6 53.1 6c-0.8-0.2-2.9-0.5-3.9-0.7l4.3-5.2h-0.9l-1 1.3L50 0.1h-0.6l2 1.6L48.5 5l-2.2-2 2.3-3h-0.5l-3.7 5 -4.2-3.7 1-1.2h-0.5l-0.8 1 -1.2-1H38l1.5 1.3 -3.2 3.8L32.2 2l1.6-1.9h-0.5l-1.4 1.6 -2-1.6h-1.2l0.6 0.5c-0.1 0.5-0.3 1.6-0.4 2.2 -0.2 0.8-0.5 1.6-0.8 2.3 -1.5-0.8-3-1.4-4.6-2 -0.4-0.1-0.9-0.3-1-0.5s0-0.6 0.7-1.5c0.1-0.2 0.5-0.6 0.9-1h-0.9l-0.5 0.6c-0.2 0.2-0.3 0.4-0.5 0.6l-1.4-1.2h-0.6l1.9 1.6c-0.1 0.2-0.2 0.5-0.2 0.8l-4.3-2.3V0.1h-0.4l0 0 -1.5 0.1V0.1h-0.4v0.2l-1.4 0.1V0.1h-0.4l0.1 0.3 -1.2 0.5c-0.1 0-0.2 0.2-0.1 0.3 0 0.1 0.1 0.1 0.2 0.1h0.1l1.3-0.5 1.5-0.1v3.6c-1.3 0-2.5 0-3.8 0.1 -0.7 0-1.3 0.2-1.9 0.4L9.3 5C9.1 5.2 8.8 5.4 8.5 5.5 8.3 5.7 8 5.9 7.7 6 7.2 6.2 6.6 6.3 6.1 6.3 5.4 6.3 3.5 6.1 1.4 6c0.1-1.2 0.2-2.3 0.4-3.4l4.7 0.5 0 0c0.1 0 0.2-0.1 0.2-0.2S6.5 2.7 6.4 2.7L1.8 2.1C1.9 1.4 2 0.8 2 0.1H1.3c-0.1 0.6-0.1 1.3-0.2 2L0 1.9v0.4l1 0.1C0.9 3.6 0.8 4.8 0.7 5.9L0 5.9v0.4l0.6 0.1C0.4 8.2 0.2 10.1 0.1 12v2.5 4c0.1-1.2 0.3-2.5 0.4-3.9l1.4 0.1 -0.2 3.2c0 0.1 0.1 0.2 0.2 0.2L9.8 19l0 0c0 0 0.1 0 0.1 0 0 0 0.1-0.1 0.1-0.1v-1.5c0 0 0 0 0-0.1l-1.6-4.9c0-0.1-0.1-0.1-0.1-0.1l-2.1-0.5 0.1-1.1c0-0.1-0.1-0.2-0.2-0.2l-1.3-0.1c0.2-1.7 0.3-3.2 0.4-3.6H6h0.2c1.2 0 2.4-0.5 3.3-1.3l0.3-0.2c0.6-0.4 4-0.5 5.6-0.5 0 0 0 0 0.1 0l0 0h0.4c0.5 0.1 0.9 0 1.4-0.3 0.3-0.2 0.4-0.4 0.5-0.8 0-0.7 0-1.5-0.1-2.2 0-0.2 0-0.5-0.1-0.8l2.7 1.5L22 3c0.3 0.4 0.8 0.7 1.3 0.8 1.8 0.7 3.6 1.5 5.3 2.3l1.4 0.7c1.1 0.7 2.2 1.4 3.1 2.2l-2.7 3.3 -1.9 2.3c-0.1 0.1-0.1 0.2 0 0.3 0 0 0.1 0 0.1 0 0.1 0 2-2.3 2-2.3l0.2 0.1 3.9 3.3L33 18.2c-0.1 0.1-0.1 0.2 0 0.3 0 0 0.1 0 0.1 0 0.1 0 0.1 0 0.2-0.1l1.7-2.1 2.5 2.1 -1.1 1.5 -2.8 3 -0.2 0.2 -0.3 0.3 0 0c-0.7-0.3-4.1-2-4.7-2.3 0 0-1.7-1-2.5 0.3 -0.1 0.1-4.1 5.5-4.6 6.1 -1.4 1.6-3 3.1-4.7 4.3 -0.5-0.1-2.7-0.7-3.5-0.8 -0.7-0.1-1.5 0.1-2.2 0.4l-2.8-3.8c0 0-0.1-0.1-0.1-0.1 0 0-0.1 0-0.2 0l-5.4 4 -1.6-2 -0.5-0.6 -0.3-0.4 0 0v1.1l0.4 0.5L2 32l-1.2 1c0 0 0 0.1 0 0.1 0 0.1 0 0.1 0 0.2l0.1 0.2 1.5 1.8 0.8 1.1H4l0.9-0.7 0.5 0.7h1.1l5.1-3.7c0.1-0.1 0.1-0.2 0.1-0.3 0 0 0 0 0 0l-0.4-0.6c0.6-0.3 1.2-0.4 1.8-0.4 0.7 0.1 2.4 0.5 3.2 0.8L16 32.3c-0.6 0.4-1.1 0.8-1.7 1.2 -1.1 0.9-2.5 1.9-3.2 2 -0.8 0.1-1.5 0.4-2.2 0.8h0.9c0.4-0.2 0.9-0.3 1.3-0.4 0.9-0.1 2.2-1.1 3.4-2.1 0.5-0.4 1-0.8 1.6-1.2 0.2-0.1 0.4-0.2 0.6-0.4l0 0c1.8-1.3 3.4-2.8 4.9-4.5 0.4-0.6 1-1.4 1.6-2.1l3 3.2 -7.6 5.6L17 32.4c-0.1-0.1-0.2-0.1-0.3 0 -0.1 0.1-0.1 0.2 0 0.3l1.6 2.1 -3.1 1.6h0.9l2.5-1.3 1 1.3h0.5L19 34.8l7.6-5.6 3.2 3.4c-2.4 1.2-5.6 2.8-7.6 3.7h0.9L30 33l3.1 3.4h0.5l-3.3-3.6c1.2-0.6 2.2-1.1 2.6-1.3l0.6-0.3c0.7-0.5 1.4-0.8 2.3-0.9l3 0.4 0.1 3.2 -3.4 1.6c0-0.1-0.1-0.2-0.1-0.3 0-0.6 0.1-1.2 0.3-1.8 0-0.1 0-0.2-0.1-0.2 0 0 0 0 0 0 -0.1 0-0.2 0-0.2 0.1 -0.2 0.6-0.3 1.3-0.3 2 0 0.2 0 0.3 0.1 0.5l-1.5 0.7h1l0.7-0.3c0.1 0.1 0.1 0.2 0.2 0.3h0.6c-0.2-0.1-0.3-0.3-0.4-0.5l3.2-1.5 0.1 2H40l3.4-2.7 2 1.1 -1.1 1.6h0.8L46 35l2.4 1.3h0.8l-3-1.6 0.1-0.1c0.8 0.4 1.6 0.8 2.5 1.1l0.9 0.3 -0.1 0.3h0.7l0.1-0.4 1.9-0.5h0.1c0 0.2 0.1 0.5 0.1 0.9H53l-0.2-1 4.3-1 0.6 2h0.7l-0.6-2.2 3.9-1 1.4 3.2h0.4L62.1 33l2.9-0.7 2.5 4H68l-7.8-12.2c-0.1-0.1-0.2-0.1-0.3-0.1l-4.5 2.4 -1.1-1.2 4.5-4.3 0.1-0.1 2-1.4 0.7-0.5 1.3 2.3c1.5 2.8 3 5.4 3.6 6.7 0.1 0.3 0.3 0.5 0.3 0.7 0.9 1.5 2 3 3.3 4.2l0 0c1.4 1.4 2.8 2.7 3.6 3.5h0.6c-0.7-0.5-2.2-2-3.8-3.5l2.3-0.9 2.3 4.2 -0.7 0.2h2.5l2.3-0.9 0.4 0.9h0.4l-0.4-1.1 4.7-1.8 1.2 2.9H86L85.9 35.9zM0.5 14.1c0.1-1.2 0.2-2.4 0.4-3.6l3.4 0.2c-0.2 1.6-0.3 3.2-0.4 3.8L0.5 14.1zM9.6 18.5l-7.5-0.8 0.2-3 1.8 0.2 0 0L9 15.3l0.7 2L9.6 18.5zM6 14.6v-0.9h2.4l0.4 1.1L6 14.6zM8 12.5l0.3 0.9H6.1l0.1-1.3L8 12.5zM5.8 10.7l-0.2 3.9 -1.3-0.1c0.1-1.2 0.3-2.5 0.4-3.8L5.8 10.7zM4.7 6.7c0 0.2-0.1 0.6-0.1 0.9 -0.1 0.6-0.2 1.5-0.3 2.6L1 10.1c0.1-1.2 0.3-2.5 0.4-3.7l3.4 0.3C4.8 6.6 4.8 6.7 4.7 6.7L4.7 6.7zM17.4 3.5c0 0 0 0.1 0 0.1 -0.1 0.3-0.6 0.7-1.4 0.6h-0.3V0.6l1.5-0.1c0.1 0.6 0.1 1.2 0.1 1.8C17.4 2.7 17.4 3.1 17.4 3.5zM10.2 31.2l-5 3.8c-0.2-0.3-0.5-0.6-0.7-0.9l5.2-3.6L10.2 31.2zM7.9 28l1.5 2.1 -5.2 3.6c-0.6-0.7-1.1-1.3-1.5-1.9L7.9 28zM3.5 36.2L2.7 35l0 0 -1.5-1.9 1-0.8c0.7 0.9 1.5 1.9 2.4 3.1L3.5 36.2zM6.1 36.1l-0.7-0.8 5-3.8 0.7 1L6.1 36.1zM53 26.6l-1.1 3.2 -1.3-0.9L53 26.6zM49 27.1l0.4 1.4c0 0 0 0.1 0.1 0.1l0.3 0.2 -0.9 0.9 -0.5 0.7L44 31c-0.1-0.3-0.1-0.7 0-1 0.1-0.4 0.1-0.7 0.2-1.1s0.1-0.5 0.1-0.7c0.2-1.4 0.4-2.8 0.5-3.9v-0.2l3.8 0.6 0.2 1 0 0 0.2 0.6L49 27.1zM38 12.2c-1.3-1.2-2.8-2.4-4-3.4L36.2 6c2 1.6 3.5 2.8 4.2 3.3L38 12.2zM40.7 9.5c0.9 0.6 1.7 1.3 2.2 2.2l-2.2 2.8c-0.7-0.6-1.5-1.4-2.4-2.1L40.7 9.5zM47.6 19l-2.2 0.5c0-0.5 0-1.1-0.1-1.6l2.1-0.3L47.6 19zM45.4 19.9l2.3-0.5 0.8 5 -3.6-0.6C45.2 22.5 45.4 21.2 45.4 19.9L45.4 19.9zM44.7 19.7c-0.1-0.6-0.3-1.2-0.6-1.7l0.5-0.1C44.7 18.5 44.7 19.1 44.7 19.7L44.7 19.7zM43.9 17.7c-0.3-0.5-0.7-0.9-1.1-1.2 -0.3-0.3-1-0.9-1.8-1.6l2.1-2.6c0.2 0.6 0.4 1.1 0.5 1.7 0.1 0.5 0.2 1 0.4 1.6 0.2 0.6 0.4 1.4 0.5 2L43.9 17.7zM43.3 18.1l-2 3 -3.1-2.6 2.4-3.1C41.4 16 43 17.7 43.3 18.1zM43.5 18.5c0.5 0.9 0.7 2 0.6 3 0 0.4 0 1.1-0.1 2l-2.5-2.1L43.5 18.5zM43.5 32.8v-0.7c0.1 0.2 0.2 0.3 0.3 0.5L43.5 32.8zM44.1 31.5l4-0.6 -1.9 2.8C45.2 33.2 44.5 32.4 44.1 31.5L44.1 31.5zM52.3 21.5c-1.1 1-2.2 1.9-3.4 2.8l-0.8-4.9 2.6-0.6c0.3 0.4 0.6 0.8 1 1.2l0.3 0.3c0.3 0.3 0.4 0.7 0.3 1.1L52.3 21.5zM50 17.1c0.1 0.4 0.2 0.9 0.5 1.2L48 18.9l-0.2-1.4L50 17.1zM46.2 9.6c0 0 0 0.1 0 0.1l1.1 7.3 -2.1 0.3c-0.1-0.6-0.3-1.3-0.5-2.1 -0.2-0.6-0.3-1.1-0.4-1.6 -0.1-0.6-0.3-1.3-0.5-1.9l2.8-3.3 0.2 0.2L46.2 9.6zM51.6 9.2l-1.5 2 -1.9-1.5 -1.4-1.4 2.2-2.6 2.5 0.4C51.2 7.1 51.2 8.2 51.6 9.2zM48.3 5.3l-2.5 3 -2.2-1.7 2.4-3.2L48.3 5.3zM39.8 1.6l4.3 3.6 -0.9 1.2c-0.1 0.1-0.1 0.2 0 0.3l2.3 1.9 -2.1 2.6c-0.6-0.9-1.4-1.7-2.4-2.4 -0.6-0.4-2.2-1.7-4.3-3.4L39.8 1.6zM30.4 6.2L29 5.5l-0.5-0.2c0.3-0.8 0.6-1.6 0.9-2.4 0.1-0.5 0.3-1.4 0.4-2l6.2 4.9 -2.3 2.7C32.6 7.6 31.5 6.8 30.4 6.2zM31 12.3l2.5-3.1c1.3 1 2.7 2.2 4.1 3.4l-2.5 3.1L31 12.3zM35.3 16l2.5-3 2.4 2.1 -2.4 3.1L35.3 16zM23.5 25.4l0.2-0.3c0.9-1.2 1.8-2.4 2.3-3.1 0.8-1.1 2.1-0.4 2.1-0.4 0.6 0.3 3.7 1.8 4.6 2.2l-0.5 0.6 -5.8 4.3L23.5 25.4zM33.3 30.9l-0.6 0.3 -2.7 1.3L26.9 29l5.6-4.1c0.5 0.6 2.8 3.3 3.2 3.9s0.3 0.7-0.2 1.2C34.7 30.2 34 30.5 33.3 30.9zM36 28.5c-0.4-0.6-2.7-3.3-3.2-3.9l0.7-0.8 0.3-0.3 0.2-0.2 2.8-3.1 0 0 1.1-1.4 6.1 5.1c-0.1 1.2-0.2 2.6-0.5 4.2 0 0.1 0 0.2 0 0.3s0 0.3-0.1 0.4c0 0.3-0.1 0.6-0.2 1 -0.1 0.4-0.1 0.8-0.1 1.2l-4.1-0.5c0 0-0.1-0.1-0.2 0h-0.1L36 30C36.4 29.6 36.4 28.9 36 28.5zM39.2 30.8l3.9 0.5V32l-3.8 1.8L39.2 30.8zM39.4 36l-0.1-1.8 3.8-1.8V33L39.4 36zM43.8 33.4l0.4-0.3c0.4 0.5 1 0.9 1.5 1.2l-0.1 0.2L43.8 33.4zM49.1 35c-0.8-0.3-1.6-0.6-2.3-1l2.6-3.9 1-0.9 1.4 1 -1.8 5.2L49.1 35zM52.4 30.3l3.3-0.6 1.2 4.3 -6.4 1.6L52.4 30.3zM57.7 33.8l-1.2-4.2 3.4-0.7 1.7 4L57.7 33.8zM61.9 32.8l-1.7-3.9 2.2-0.4 2.3 3.6L61.9 32.8zM60 24.5l2.2 3.5 -2.1 0.4 -1.4-3.2L60 24.5zM58.3 25.4l1.3 3.1 -3.3 0.6 -0.7-2.3L58.3 25.4zM55 27l0.7 2.3 -3 0.6 1.3-4L55 27zM67.3 7.9l2.9 4.5 -5.5 3.7L62 11.3 67.3 7.9zM76.9 15.7c0 0.1 0.1 0.4 0.3 0.7l-2.6 2.1 -1.2 1 -0.1-0.2 -1.5-3.6 4.9-0.9C76.7 15.1 76.8 15.4 76.9 15.7zM75.5 24.7l-2-4.9 3.8-3.1c0.5 1.3 1.5 3.6 2.7 6.3L75.5 24.7zM76.6 14.3l-5 0.9 -0.8-2.5 4-2.8 1.7-1.1C76.5 10.7 76.5 12.5 76.6 14.3L76.6 14.3zM71.2 15.3l-5.6 1.1 4.9-3.4L71.2 15.3zM71.3 15.7l1.6 4L68 22l-2.9-5.1L71.3 15.7zM73.1 20l2 4.8 -4.6 1.7 -2.3-4.2L73.1 20zM75.2 25.2l2 4.7 -4 1.5 -2.6-4.5L75.2 25.2zM82.2 28l-4.6 1.8 -1.9-4.7 4.5-1.7C80.8 24.8 81.5 26.4 82.2 28zM83.9 21.6l-3.5 1.3c-1.2-2.7-2.2-5-2.7-6.3l3.7-0.8L83.9 21.6zM81.2 15.4l-3.7 0.8c-0.1-0.3-0.2-0.6-0.3-0.7 -0.1-0.3-0.2-0.6-0.2-0.9l3.5-0.7L81.2 15.4zM80.5 13.6L77 14.2c-0.1-1.8-0.1-3.6 0-5.4l3.5-0.6L80.5 13.6zM80.5 7.8l-3.1 0.6 3.1-2V7.8zM77.4 1.3c1.3 2.1 2.4 3.8 2.8 4.5L76.8 8l-3-4.3L77.4 1.3zM73.4 3.9l3 4.3 -2 1.3 -4 2.7 -2.8-4.5L73.4 3.9zM59.6 3.7c0.9-1.1 2-2.1 3.2-2.9l4.3 6.7 -2.6 1.7 0 0 -0.6-1.1C63.8 8 63.7 8 63.6 8c0 0 0 0 0 0 -0.1 0.1-0.1 0.2-0.1 0.3l0.6 1.1v0.1l-2.3 1.5L60 7.7c-0.1-0.1-0.2-0.1-0.3-0.1 -0.1 0.1-0.1 0.2-0.1 0.3l1.8 3.3 -2.7 1.7c-0.2-0.3-0.3-0.7-0.5-1.1C58.2 11.2 57.3 6.4 59.6 3.7zM59 13.2l2.7-1.8 2.7 4.9 -2.7 1.9C60.6 16.3 59.6 14.5 59 13.2zM62 18.9l2.7-1.9 2.9 5.2 -3 1.4c-0.4-0.8-0.9-1.6-1.4-2.5S62.4 19.6 62 18.9zM64.9 24l3-1.4 2.3 4.1 -1.5 0.6L67 27.9l0 0C66.5 27 65.8 25.6 64.9 24zM70.4 32.5c-1.2-1.2-2.3-2.5-3.1-3.9 0-0.1-0.1-0.2-0.1-0.3l3.2-1.2 2.5 4.5L70.4 32.5zM76.9 35.7L75.8 36l-2.4-4.2 3.9-1.5 1.9 4.5L76.9 35.7zM79.6 34.7l-1.9-4.5 4.6-1.8c0.7 1.5 1.3 3 2 4.5L79.6 34.7z"/><path class="st3" d="M80.5 1.1c0.1-0.1 0.1-0.2 0-0.3L80 0.1h-0.5l0.7 1C80.3 1.1 80.4 1.1 80.5 1.1z"/><path class="st3" d="M8.8 22.2c0.4 0 0.8-0.1 1.1-0.4 0.4-0.4 0.1-1.3 0-1.4 0-0.1-0.1-0.1-0.2-0.1l-9.6-1.1v0.4l9.5 1.1c0.1 0.2 0.1 0.7 0 0.8S9 21.9 8.2 21.8L0.1 21v0.4l8.1 0.9L8.8 22.2z"/><path class="st3" d="M4.1 24.1c0.1 0 0.2-0.1 0.2-0.2 0-0.1-0.1-0.2-0.2-0.2 0 0 0 0 0 0l-4-0.5v0.4L4.1 24.1 4.1 24.1z"/></svg>